<?xml version="1.0" encoding="iso-8859-1"?>
<!-- Generator: Adobe Illustrator 19.0.0, SVG Export Plug-In . SVG Version: 6.00 Build 0)  -->
<svg version="1.1" id="Layer_1" xmlns="http://www.w3.org/2000/svg" xmlns:xlink="http://www.w3.org/1999/xlink" x="0px" y="0px"
	 viewBox="0 0 512 512" style="enable-background:new 0 0 512 512;" xml:space="preserve">
<g>
	<g>
		<path d="M256,0C114.615,0,0,114.615,0,256s114.615,256,256,256s256-114.615,256-256S397.385,0,256,0z M256,494.933
			C124.041,494.933,17.067,387.959,17.067,256S124.041,17.067,256,17.067S494.933,124.041,494.933,256S387.959,494.933,256,494.933z
			"/>
	</g>
</g>
<g>
	<g>
		<path d="M359.509,237.824L240.043,117.333c-9.956-10.038-26.165-10.105-36.204-0.148c-4.841,4.801-7.567,11.336-7.572,18.154
			v241.323c0.017,10.366,6.284,19.698,15.872,23.637c3.137,1.305,6.502,1.972,9.899,1.963c6.782-0.074,13.258-2.836,18.005-7.68
			l119.467-120.576C369.492,264.01,369.492,247.819,359.509,237.824z M347.356,262.009c-0.016,0.017-0.033,0.033-0.049,0.049v0.341
			L227.84,382.976c-3.319,3.346-8.722,3.368-12.068,0.05c-1.607-1.594-2.515-3.76-2.524-6.023V135.339
			c0.017-3.445,2.104-6.542,5.291-7.851c1.084-0.442,2.242-0.674,3.413-0.683c2.221,0.054,4.333,0.973,5.888,2.56l119.467,120.576
			C350.653,253.26,350.675,258.663,347.356,262.009z"/>
	</g>
</g>
<g>
</g>
<g>
</g>
<g>
</g>
<g>
</g>
<g>
</g>
<g>
</g>
<g>
</g>
<g>
</g>
<g>
</g>
<g>
</g>
<g>
</g>
<g>
</g>
<g>
</g>
<g>
</g>
<g>
</g>
</svg>
